<svg width="130" height="81" viewBox="0 0 130 81" fill="none" xmlns="http://www.w3.org/2000/svg">
<g clip-path="url(#clip0_173_2044)">
<g clip-path="url(#clip1_173_2044)">
<g clip-path="url(#clip2_173_2044)">
<path d="M14.4478 66.9449H4.03873C3.99912 67.9747 4.36786 68.9785 5.06473 69.7379C5.70067 70.3386 6.54919 70.6622 7.42374 70.6376C8.16878 70.6656 8.90261 70.4498 9.51374 70.0228C10.0641 69.6201 10.4437 69.026 10.5778 68.3574H14.3978C14.2179 69.3302 13.8044 70.2448 13.1928 71.0225C12.5626 71.8199 11.7488 72.4531 10.8208 72.8679C9.72382 73.3418 8.53581 73.568 7.3414 73.5304C6.147 73.4927 4.9756 73.1921 3.91074 72.65C2.84449 72.0715 1.97092 71.1937 1.39774 70.1248C0.807065 68.9178 0.5 67.5918 0.5 66.2481C0.5 64.9044 0.807065 63.5784 1.39774 62.3714C1.96608 61.299 2.8409 60.4199 3.91074 59.8463C5.04869 59.2505 6.31837 58.9507 7.60273 58.9746C8.88349 58.9455 10.1503 59.2457 11.2818 59.8463C12.3045 60.3995 13.1492 61.2315 13.7178 62.2455C14.3022 63.3084 14.5983 64.5056 14.5768 65.7183C14.5708 66.1302 14.5276 66.5407 14.4478 66.9449ZM10.0247 62.7153C9.36304 62.1147 8.49516 61.7925 7.60175 61.8156C6.69635 61.7907 5.81565 62.1126 5.13974 62.7153C4.78909 63.0595 4.51106 63.4704 4.32212 63.9239C4.13317 64.3774 4.03715 64.8642 4.03974 65.3554H10.9398C10.9979 64.8748 10.9457 64.3872 10.7871 63.9298C10.6286 63.4723 10.3678 63.057 10.0247 62.7153Z" fill="#46B2FF"/>
<path d="M25.3928 59.8195C26.2276 60.3692 26.8688 61.1671 27.2257 62.1006V54.3867H30.8154V73.353H27.2257V70.3802C26.8668 71.316 26.2264 72.1175 25.3928 72.6743C24.4827 73.2654 23.4139 73.565 22.329 73.533C21.1918 73.5492 20.0728 73.2473 19.0982 72.6613C18.1195 72.057 17.3394 71.1791 16.8544 70.1363C16.3217 68.9112 16.0469 67.5897 16.0469 66.2539C16.0469 64.9181 16.3217 63.5966 16.8544 62.3715C17.3394 61.3287 18.1195 60.4509 19.0982 59.8465C20.0728 59.2605 21.1918 58.9586 22.329 58.9749C23.4119 58.9424 24.4796 59.2367 25.3928 59.8195ZM20.7391 63.2281C20.0187 64.0654 19.6509 65.1493 19.7132 66.2519C19.6493 67.3508 20.0174 68.4312 20.7391 69.2627C21.4679 69.9659 22.4426 70.3568 23.4555 70.3521C24.4684 70.3474 25.4394 69.9476 26.1617 69.2377C26.8501 68.3897 27.2258 67.3309 27.2258 66.2389C27.2258 65.1469 26.8501 64.0881 26.1617 63.2401C25.815 62.8741 25.3948 62.5856 24.9286 62.3933C24.4625 62.2011 23.9609 62.1095 23.4569 62.1246C22.9515 62.1037 22.4474 62.1913 21.9787 62.3817C21.5101 62.5721 21.0877 62.8607 20.7401 63.2281H20.7391Z" fill="#46B2FF"/>
<path d="M47.4264 59.1533V73.3486H43.8114V70.4775C43.4562 71.4098 42.8026 72.1984 41.9524 72.7208C41.054 73.2689 40.0177 73.5492 38.9654 73.5285C38.2344 73.5609 37.5051 73.4336 36.8284 73.1552C36.1517 72.8769 35.5439 72.4544 35.0474 71.917C34.0081 70.6515 33.4862 69.0398 33.5864 67.4055V59.1523H37.1754V66.9947C37.1157 67.9501 37.4282 68.8916 38.0474 69.6218C38.351 69.9371 38.7186 70.1837 39.1255 70.3451C39.5324 70.5065 39.9692 70.5789 40.4064 70.5575C40.8683 70.5791 41.3294 70.501 41.7584 70.3285C42.1874 70.156 42.5742 69.8932 42.8924 69.5578C43.5552 68.7539 43.8854 67.7272 43.8154 66.6878V59.1523L47.4264 59.1533Z" fill="#46B2FF"/>
<path d="M61.355 60.4606C62.5939 61.4808 63.4114 62.9233 63.65 64.5102H59.83C59.706 63.8091 59.3327 63.1765 58.779 62.7288C58.1831 62.2773 57.4491 62.0462 56.702 62.075C56.2485 62.066 55.7985 62.1565 55.3838 62.3403C54.9691 62.5241 54.5998 62.7966 54.302 63.1387C53.6754 64.0565 53.3402 65.1419 53.3402 66.2531C53.3402 67.3643 53.6754 68.4497 54.302 69.3676C54.5998 69.7096 54.9691 69.9821 55.3838 70.1659C55.7985 70.3497 56.2485 70.4402 56.702 70.4312C57.4491 70.46 58.1831 70.229 58.779 69.7774C59.3329 69.3299 59.7062 68.6971 59.83 67.996H63.65C63.4114 69.5829 62.5939 71.0254 61.355 72.0457C60.0518 73.0641 58.4311 73.5905 56.778 73.5322C55.4921 73.5559 54.2214 73.2514 53.086 72.6474C52.0198 72.0688 51.1463 71.1911 50.573 70.1223C49.9827 68.9152 49.6758 67.5893 49.6758 66.2456C49.6758 64.902 49.9827 63.576 50.573 62.3689C51.1415 61.2966 52.0163 60.4176 53.086 59.8438C54.2239 59.248 55.4936 58.9482 56.778 58.9721C58.4313 58.9143 60.0521 59.4414 61.355 60.4606Z" fill="#46B2FF"/>
<path d="M74.3937 59.8195C75.2316 60.3625 75.8703 61.1631 76.2135 62.1005V59.1537H79.8033V73.348H76.2135V70.3752C75.8683 71.3149 75.2304 72.1191 74.3937 72.6693C73.4782 73.2591 72.4056 73.5585 71.3169 73.5279C70.1797 73.5441 69.0607 73.2422 68.0861 72.6563C67.1077 72.0518 66.328 71.174 65.8432 70.1313C65.3103 68.9063 65.0352 67.5847 65.0352 66.2489C65.0352 64.913 65.3103 63.5914 65.8432 62.3664C66.328 61.3237 67.1077 60.4459 68.0861 59.8414C69.0607 59.2555 70.1797 58.9536 71.3169 58.9698C72.4043 58.9401 73.4757 59.236 74.3937 59.8195ZM69.727 63.2281C69.0068 64.0655 68.6395 65.1493 68.7021 66.2519C68.6378 67.3507 69.0056 68.4311 69.727 69.2626C70.4558 69.9658 71.4305 70.3567 72.4434 70.3521C73.4563 70.3474 74.4273 69.9475 75.1496 69.2377C75.838 68.3897 76.2136 67.3309 76.2136 66.2389C76.2136 65.1468 75.838 64.088 75.1496 63.2401C74.8035 62.8747 74.3841 62.5864 73.9188 62.3942C73.4536 62.202 72.953 62.1101 72.4498 62.1245C71.9435 62.1029 71.4385 62.1903 70.969 62.3807C70.4994 62.5711 70.0752 62.86 69.727 63.2281Z" fill="#46B2FF"/>
<path d="M93.7292 60.4604C94.9681 61.4807 95.7855 62.923 96.024 64.5098H92.2043C92.0801 63.8086 91.7065 63.176 91.1524 62.7285C90.5566 62.2769 89.8226 62.0458 89.0755 62.0748C88.622 62.0658 88.1721 62.1563 87.7574 62.3401C87.3428 62.5239 86.9735 62.7964 86.6757 63.1384C86.0491 64.0561 85.714 65.1415 85.714 66.2526C85.714 67.3637 86.0491 68.4491 86.6757 69.3668C86.9735 69.7088 87.3428 69.9813 87.7574 70.1651C88.1721 70.3489 88.622 70.4394 89.0755 70.4304C89.8226 70.4594 90.5566 70.2283 91.1524 69.7767C91.7066 69.3293 92.0802 68.6966 92.2043 67.9954H96.024C95.7855 69.5821 94.9681 71.0245 93.7292 72.0448C92.4261 73.063 90.8055 73.5894 89.1525 73.5312C87.8667 73.5549 86.5961 73.2504 85.4608 72.6465C84.3947 72.0679 83.5212 71.1902 82.9479 70.1215C82.3577 68.9145 82.0508 67.5887 82.0508 66.2451C82.0508 64.9015 82.3577 63.5757 82.9479 62.3687C83.5164 61.2964 84.3911 60.4175 85.4608 59.8437C86.5986 59.2479 87.8682 58.9482 89.1525 58.972C90.8057 58.9144 92.4264 59.4414 93.7292 60.4604ZM91.9353 75.3024C92.2371 75.5567 92.4795 75.874 92.6453 76.232C92.8112 76.5901 92.8965 76.9801 92.8953 77.3746C92.894 77.7692 92.8063 78.1587 92.6382 78.5156C92.4701 78.8726 92.2257 79.1884 91.9223 79.4408C91.2093 79.9123 90.3669 80.1499 89.5125 80.1205H86.2047V78.1723H89.1275C89.9995 78.1723 90.4351 77.8647 90.4344 77.2496C90.4371 77.1286 90.4091 77.0087 90.3532 76.9013C90.2973 76.7938 90.2152 76.7022 90.1144 76.6349C89.8166 76.4594 89.4723 76.3788 89.1275 76.404H87.4356V73.1743H89.6145V74.6867C90.435 74.6287 91.2515 74.8454 91.9353 75.3024Z" fill="#46B2FF"/>
<path d="M106.773 59.8195C107.611 60.3625 108.249 61.1631 108.593 62.1006V59.1538H112.182V73.348H108.593V70.3752C108.247 71.315 107.609 72.1192 106.773 72.6693C105.857 73.2592 104.785 73.5585 103.696 73.528C102.559 73.5442 101.44 73.2423 100.465 72.6563C99.487 72.0516 98.707 71.1739 98.2216 70.1313C97.689 68.9062 97.4141 67.5847 97.4141 66.2489C97.4141 64.9131 97.689 63.5916 98.2216 62.3665C98.707 61.3239 99.487 60.4462 100.465 59.8415C101.44 59.2556 102.559 58.9536 103.696 58.9699C104.783 58.9403 105.855 59.2362 106.773 59.8195ZM104.157 54.5397C104.492 54.6916 104.817 54.8628 105.132 55.0524C105.375 55.2057 105.628 55.3427 105.889 55.4623C106.087 55.5483 106.301 55.5919 106.517 55.5902C106.657 55.5952 106.798 55.5705 106.928 55.5176C107.058 55.4647 107.176 55.3849 107.274 55.2834C107.491 55.0309 107.621 54.7156 107.646 54.3837H109.518C109.432 55.315 109.061 56.1971 108.454 56.9087C108.187 57.1836 107.865 57.3996 107.51 57.543C107.154 57.6864 106.773 57.754 106.39 57.7414C106.061 57.7472 105.734 57.6863 105.429 57.5624C105.082 57.4104 104.744 57.2392 104.416 57.0496C104.109 56.879 103.865 56.7508 103.685 56.6648C103.497 56.5781 103.292 56.5344 103.085 56.5368C102.453 56.5368 102.077 56.9384 101.957 57.7414H100.111C100.471 55.4863 101.504 54.3587 103.211 54.3587C103.535 54.3533 103.857 54.4149 104.157 54.5397ZM102.106 63.2281C101.385 64.0653 101.018 65.1492 101.08 66.2519C101.016 67.3512 101.384 68.4322 102.106 69.2637C102.835 69.9671 103.809 70.3582 104.822 70.3535C105.835 70.3488 106.806 69.9488 107.529 69.2387C108.217 68.3907 108.593 67.3319 108.593 66.2399C108.593 65.1479 108.217 64.0891 107.529 63.2411C107.183 62.8757 106.763 62.5875 106.298 62.3953C105.833 62.203 105.332 62.1111 104.829 62.1256C104.322 62.1036 103.817 62.1907 103.348 62.3809C102.878 62.5711 102.454 62.8601 102.106 63.2281Z" fill="#46B2FF"/>
<path d="M125.397 59.8461C126.49 60.4186 127.393 61.2958 127.997 62.3712C128.62 63.5684 128.946 64.8982 128.946 66.2479C128.946 67.5976 128.62 68.9274 127.997 70.1246C127.388 71.1963 126.486 72.0723 125.397 72.6498C124.24 73.2313 122.962 73.5341 121.667 73.5341C120.371 73.5341 119.094 73.2313 117.936 72.6498C116.847 72.0722 115.945 71.1962 115.336 70.1246C114.713 68.9274 114.387 67.5976 114.387 66.2479C114.387 64.8982 114.713 63.5684 115.336 62.3712C115.94 61.2959 116.843 60.4187 117.936 59.8461C119.096 59.2728 120.373 58.9746 121.667 58.9746C122.961 58.9746 124.237 59.2728 125.397 59.8461ZM119.103 63.1659C118.421 64.0512 118.052 65.1371 118.052 66.2544C118.052 67.3717 118.421 68.4576 119.103 69.3429C119.44 69.6799 119.839 69.9473 120.279 70.1298C120.719 70.3122 121.19 70.4061 121.667 70.4061C122.143 70.4061 122.615 70.3122 123.054 70.1298C123.494 69.9473 123.894 69.6799 124.23 69.3429C124.912 68.4576 125.282 67.3717 125.282 66.2544C125.282 65.1371 124.912 64.0512 124.23 63.1659C123.894 62.8289 123.494 62.5615 123.054 62.379C122.615 62.1966 122.143 62.1027 121.667 62.1027C121.19 62.1027 120.719 62.1966 120.279 62.379C119.839 62.5615 119.44 62.8289 119.103 63.1659Z" fill="#46B2FF"/>
<path d="M39.8457 0.150391H80.204V9.23871H64.785V48.049H55.2677V9.23871H39.8457V0.150391Z" fill="white"/>
<path d="M0.5 48.049V8.13318C0.5 3.09722 3.4488 0.149414 8.48646 0.149414H35.0847V9.23773H11.8032C11.5641 9.21718 11.3233 9.24915 11.0978 9.3314C10.8722 9.41365 10.6674 9.54419 10.4977 9.71388C10.3279 9.88357 10.1974 10.0883 10.1151 10.3137C10.0328 10.5392 10.0008 10.7799 10.0213 11.019V19.1257H29.37V27.9681H10.0213V48.049H0.5Z" fill="white"/>
<path d="M86.4028 5.75562C85.9622 5.4855 85.5984 5.10694 85.3459 4.65613C85.0935 4.20531 84.9609 3.69731 84.9609 3.18066V13.8503C84.9609 14.3681 85.0934 14.8772 85.3457 15.3293C85.5981 15.7814 85.962 16.1615 86.4028 16.4333L97.957 23.5574C98.0498 23.6146 98.1265 23.6946 98.1797 23.7898C98.2328 23.885 98.2607 23.9922 98.2607 24.1012C98.2607 24.2102 98.2328 24.3174 98.1797 24.4126C98.1265 24.5078 98.0498 24.5878 97.957 24.645L86.4028 31.7671C85.9619 32.0391 85.598 32.4193 85.3456 32.8716C85.0932 33.3238 84.9608 33.8331 84.9609 34.351V45.0197C84.9609 44.5031 85.0935 43.9951 85.3459 43.5442C85.5984 43.0934 85.9622 42.7149 86.4028 42.4447L102.955 32.2399C104.345 31.3833 105.492 30.1856 106.287 28.7607C107.083 27.3358 107.501 25.7311 107.501 24.0992C107.501 22.4673 107.083 20.8626 106.287 19.4377C105.492 18.0127 104.345 16.815 102.955 15.9585L86.4028 5.75562Z" fill="#46B2FF"/>
<path d="M103.578 0.150391H87.9949C87.3355 0.150103 86.694 0.365013 86.1679 0.762456C85.6419 1.1599 85.26 1.71814 85.0803 2.35237C84.9006 2.9866 84.933 3.66212 85.1725 4.2763C85.4119 4.89047 85.8453 5.40971 86.407 5.75512L92.0576 9.23871H103.578C112.423 9.23871 119.304 14.9504 119.304 24.0997C119.304 33.249 112.424 38.9607 103.578 38.9607H92.0576L86.407 42.4453C85.8451 42.7904 85.4113 43.3096 85.1717 43.9237C84.9321 44.5379 84.8996 45.2136 85.0794 45.8479C85.2591 46.4822 85.6413 47.0404 86.1675 47.4377C86.6938 47.8351 87.3354 48.0497 87.9949 48.049H103.578C117.83 48.049 128.947 38.9607 128.947 24.0997C128.947 9.23871 117.83 0.150391 103.578 0.150391Z" fill="white"/>
</g>
</g>
</g>
<defs>
<clipPath id="clip0_173_2044">
<rect width="129" height="81" fill="white" transform="translate(0.5)"/>
</clipPath>
<clipPath id="clip1_173_2044">
<rect width="129" height="81" fill="white" transform="translate(0.5)"/>
</clipPath>
<clipPath id="clip2_173_2044">
<rect width="129" height="81" fill="white" transform="translate(0.5)"/>
</clipPath>
</defs>
</svg>
